<svg width="700pt" height="700pt" version="1.1" viewBox="0 0 700 700" xmlns="http://www.w3.org/2000/svg" xmlns:xlink="http://www.w3.org/1999/xlink">
<defs>
    <linearGradient id="gradient">
      <stop offset="5%" stop-color="#D8AE5E" />
      <stop offset="95%" stop-color="#E7D49E" />
    </linearGradient>
</defs>
<g>
  <path fill="url(#gradient)" d="m366.62 107.23h68.629l-79.402-79.402v68.633c0 5.9336 4.832 10.77 10.773 10.77z"/>
  <path fill="url(#gradient)" d="m230.72 144.1h-0.30078v-18.887c5.1523 0.73828 9.9453 2.6836 14.363 5.8281l6.5312-9.2422c-6.5664-4.4883-13.531-6.9961-20.895-7.5391v-5.1211h-6.4297v5.0234c-6.4961 0.33594-11.773 2.3438-15.824 6.0234-4.0508 3.6875-6.0781 8.4258-6.0781 14.215 0 5.793 1.7617 10.16 5.2773 13.109 3.5156 2.9492 9.0547 5.3242 16.625 7.1328v19.488c-5.9609-0.94141-11.75-3.8516-17.379-8.7383l-7.332 8.7383c7.3008 6.3594 15.535 10.012 24.715 10.945v7.332h6.4297l-0.007812-7.2227c6.8281-0.33594 12.32-2.3438 16.473-6.0312 4.1523-3.6797 6.2305-8.4531 6.2305-14.316 0-5.8555-1.8086-10.328-5.4258-13.41-3.6172-3.0742-9.2734-5.5195-16.973-7.3281zm-6.7344-1.8086c-3.75-1.207-6.2969-2.4609-7.6367-3.7695-1.3398-1.3047-2.0078-3.0781-2.0078-5.3203s0.85547-4.1211 2.5586-5.625c1.707-1.5078 4.0703-2.3945 7.082-2.6641zm14.066 29.332c-1.875 1.543-4.4219 2.4805-7.6367 2.8125v-18.078c4.0195 1.207 6.7656 2.4922 8.2344 3.8672 1.4727 1.375 2.2109 3.2344 2.2109 5.5742 0.003907 2.3477-0.9375 4.2891-2.8086 5.8242z"/>
  <path fill="url(#gradient)" d="m581.54 172.31h-215.38c-11.848 0-21.539 9.6914-21.539 21.539v107.7h258.46v-107.7c0-11.848-9.6914-21.539-21.539-21.539zm-10.77 91.539c0 8.9375-7.2148 16.152-16.152 16.152h-161.54c-8.832 0-16.152-7.2148-16.152-16.152v-32.309c0-8.9375 7.3242-16.152 16.152-16.152h161.54c8.9375 0 16.152 7.2148 16.152 16.152z"/>
  <path fill="url(#gradient)" d="m441.54 150.77v-22.008h-74.914c-17.816 0-32.312-14.492-32.312-32.309l0.003906-74.914h-205.09c-17.77 0-32.309 14.539-32.309 32.309v387.69c0 17.77 14.539 32.309 32.309 32.309h193.84v-280c0-23.754 19.324-43.078 43.078-43.078zm-183.03 258.47h-107.69v-21.539h107.69zm0-53.848h-107.69v-21.539h107.69zm0-53.844h-107.69v-21.539h107.69zm-32.355-75.398c-41.57 0-75.383-33.816-75.383-75.383 0-41.57 33.816-75.383 75.383-75.383 41.57 0 75.383 33.816 75.383 75.383 0.003906 41.57-33.812 75.383-75.383 75.383zm75.43 183.09h-20.465v-21.539h20.465zm0-53.848h-20.465v-21.539h20.465zm0-53.844h-20.465v-21.539h20.465z"/>
  <path fill="url(#gradient)" d="m344.62 516.92c0 11.848 9.6914 21.539 21.539 21.539h215.38c11.848 0 21.539-9.6914 21.539-21.539v-193.83h-258.46zm183.12-161.53h21.539v21.539h-21.539zm0 53.848h21.539v21.539h-21.539zm0 53.848h21.539v21.539h-21.539zm-64.617-107.7h21.539v21.539h-21.539zm0 53.848h21.539v21.539h-21.539zm0 53.848h21.539v21.539h-21.539zm-64.613-107.7h21.539v21.539h-21.539zm0 53.848h21.539v21.539h-21.539zm0 53.848h21.539v21.539h-21.539z"/>
</g>
</svg>
