<svg width="700pt" height="700pt" version="1.1" viewBox="0 0 700 700" xmlns="http://www.w3.org/2000/svg" xmlns:xlink="http://www.w3.org/1999/xlink">
 <defs>
    <linearGradient id="gradient">
      <stop offset="5%" stop-color="#D8AE5E" />
      <stop offset="95%" stop-color="#E7D49E" />
    </linearGradient>
 </defs>
 <g>
  <path fill="url(#gradient)" d="m438.43 461.34c57.758 8.8906 96.969 26.234 96.969 46.156 0 28.996-83.004 52.5-185.39 52.5s-185.39-23.504-185.39-52.5c0-19.922 39.207-37.266 96.969-46.156 13.684-2.1016 26.531 3.5 34.301 14.953l15.688 23.145c8.7422 12.891 22.863 20.371 38.438 20.371s29.699-7.4805 38.438-20.371l15.688-23.145c7.7695-11.453 20.613-17.055 34.301-14.953zm-88.426-387.76c59.43 0 107.62 48.176 107.62 107.62 0 59.43-48.188 107.62-107.62 107.62s-107.62-48.188-107.62-107.62c0-59.438 48.188-107.62 107.62-107.62zm-12.941 45.938v-11.875c0-3.6211 2.9492-6.5703 6.5703-6.5703h12.73c3.6211 0 6.5625 2.9492 6.5781 6.5625l0.050781 11.332c2.7031 0.79688 5.3281 1.8828 7.7969 3.2539 10.562 5.8789 16.809 16.09 18.828 27.852 0.33984 1.9414-0.18359 3.8398-1.4531 5.3477-1.2695 1.5039-3.0547 2.3359-5.0234 2.3359h-11.68c-2.9219 0-5.4414-1.8711-6.293-4.6719-3.9375-13.055-28.926-14.902-28.926 1.375 0 8.8633 12.637 12.406 19.301 14.84 18.785 6.8594 34.824 14.262 34.824 37.109 0 17.516-11.254 31.09-27.43 36.469v11.863c0 3.6211-2.957 6.5781-6.5781 6.5781h-12.73c-3.6211 0-6.5547-2.9492-6.5703-6.5703l-0.050782-11.332c-2.7109-0.78906-5.3359-1.8711-7.8047-3.2461-10.562-5.8789-16.809-16.09-18.828-27.852-0.33203-1.9531 0.18359-3.8398 1.4531-5.3477 1.2695-1.5156 3.0547-2.3438 5.0234-2.3438h11.68c2.9141 0 5.4414 1.8828 6.2812 4.6719 3.9453 13.062 28.945 14.902 28.945-1.3555 0-9.4062-14.613-13.125-21.57-15.688-18.094-6.6484-32.566-14.672-32.566-36.27 0-17.516 11.262-31.078 27.441-36.469zm165.96 158.77-138.82 204.71c-3.2891 4.8555-8.3398 7.5234-14.203 7.5234-5.8633 0-10.902-2.668-14.203-7.5234l-138.82-204.71c-17.84-28.07-28.184-61.371-28.184-97.09 0-100.07 81.129-181.2 181.2-181.2 100.07 0 181.2 81.129 181.2 181.2 0 35.719-10.344 69.02-28.184 97.09zm-153.02-230.55c-73.703 0-133.45 59.746-133.45 133.45 0 73.703 59.754 133.45 133.45 133.45 73.703 0 133.45-59.754 133.45-133.45 0-73.711-59.754-133.45-133.45-133.45z" fill-rule="evenodd"/>
 </g>
</svg>
