<?xml version="1.0" encoding="UTF-8"?>
<svg width="700pt" height="700pt" version="1.1" viewBox="0 0 700 700" xmlns="http://www.w3.org/2000/svg" xmlns:xlink="http://www.w3.org/1999/xlink">
 <defs>
    <linearGradient id="gradient">
      <stop offset="5%" stop-color="#D8AE5E" />
      <stop offset="95%" stop-color="#E7D49E" />
    </linearGradient>
 </defs>
 <g>
  <path fill="url(#gradient)" d="m114.57 103.16h470.84c7.9102 0.007812 15.492 3.1523 21.086 8.7422 5.5938 5.5898 8.7461 13.172 8.7578 21.082v34.32l-530.52-0.003906v-34.316c0.011719-7.9102 3.1602-15.488 8.7539-21.078s13.176-8.7344 21.082-8.7461zm500.69 81.828v39.496l-530.52-0.003907v-39.496zm-29.844 271.86h-470.84c-7.9062-0.011719-15.488-3.1562-21.082-8.7461s-8.7422-13.168-8.7539-21.078v-184.86h530.53v184.86h-0.003906c-0.011719 7.9102-3.1641 15.492-8.7578 21.082-5.5938 5.5898-13.176 8.7344-21.086 8.7422zm-13.062-90.469h-186.24c-4.8828 0-8.8438 3.9609-8.8438 8.8438v39.305c0 4.8828 3.9609 8.8438 8.8438 8.8438h186.24c4.8828 0 8.8438-3.9609 8.8438-8.8438v-39.305c0-4.8828-3.9609-8.8438-8.8438-8.8438zm-8.8438 39.301v-21.617h-168.55v21.617zm-357.26-78.59h-78.594c-4.8828 0-8.8438 3.9609-8.8438 8.8438v78.594c0 4.8828 3.9609 8.8438 8.8438 8.8438h78.594c4.8828 0 8.8438-3.9609 8.8438-8.8438v-78.594c0-4.8828-3.9609-8.8438-8.8438-8.8438zm-8.8438 78.59 0.003906-60.91h-60.918v60.91z" fill-rule="evenodd"/>
  </g>
</svg>
