<svg width="300pt" height="300pt" version="1.1" viewBox="0 0 700 700" xmlns="http://www.w3.org/2000/svg" xmlns:xlink="http://www.w3.org/1999/xlink">
 <defs>
    <linearGradient id="gradient">
      <stop offset="5%" stop-color="#D8AE5E" />
      <stop offset="95%" stop-color="#E7D49E" />
    </linearGradient>
 </defs>
 <g>
  <path fill="url(#gradient)" d="m700 15.457h-700v535.27h700zm-664.92 35.078h630v79.41h-630zm630 465.11h-630v-279.22h630zm-299.52-223.77c-0.64453 4.3984-2.875 8.4062-6.2695 11.27-3.3945 2.8672-7.7227 4.3906-12.164 4.2891h-168.23c-4.4336 0.10156-8.75-1.4258-12.133-4.293-3.3828-2.8672-5.5977-6.875-6.2227-11.266-0.53125-4.9414 1.0625-9.875 4.3867-13.57 3.3242-3.6953 8.0625-5.8008 13.035-5.793h169.94c4.9961-0.023437 9.7656 2.0664 13.133 5.7578 3.3633 3.6914 5.0078 8.6367 4.5234 13.605zm160.69 0h0.003906c-0.66406 4.4023-2.9102 8.4141-6.3164 11.277-3.4102 2.8633-7.7461 4.3867-12.195 4.2812h-77c-15.555 0-23.332-6.6094-24.422-15.555v-0.003906c-0.53125-4.9414 1.0664-9.875 4.3867-13.57 3.3242-3.6953 8.0625-5.8008 13.035-5.793h84.855c4.9648 0.019531 9.6953 2.1289 13.027 5.8164 3.3281 3.6875 4.9531 8.6055 4.4727 13.547z"/>
 </g>
 <text x="100" y="400" font-family= "Segoe UI" font-weight= "bold" font-size="30" fill="white">Number: xxxxxxxxxxx</text>
 <text x="100" y="450"  font-family= "Segoe UI" font-weight= "bold" font-size="30" fill="white">Your Name</text>
</svg>
