<svg width="700pt" height="700pt" version="1.1" viewBox="0 0 700 700" xmlns="http://www.w3.org/2000/svg" xmlns:xlink="http://www.w3.org/1999/xlink">
<defs>
    <linearGradient id="gradient">
      <stop offset="5%" stop-color="#D8AE5E" />
      <stop offset="95%" stop-color="#E7D49E" />
    </linearGradient>
</defs>
 <g>
  <path fill="url(#gradient)" d="m81.902 325.37v-57.723l-7.918 37.789c-1.6484 7.8672 1.7109 15.617 7.918 19.934z"/>
  <path fill="url(#gradient)" d="m92.734 215.93 39.004-186.15c2.1992-10.5 12.496-17.227 22.996-15.027l456.25 95.594c10.5 2.2031 17.227 12.496 15.027 22.996l-37.773 180.29v-79.008c0-2.8789-0.56641-5.625-1.5898-8.1328l18.363-87.633c1.0977-5.2461-2.2656-10.395-7.5156-11.496l-9.5039-1.9922c-5.25-1.0977-10.398 2.2656-11.496 7.5156l-16.805 80.199h-19.844l17.637-84.184c1.1016-5.25-2.2656-10.395-7.5156-11.496l-9.5039-1.9922c-5.25-1.0977-10.395 2.2656-11.496 7.5156l-18.891 90.156h-302.9c3.3125-0.98047 5.9961-3.707 6.7539-7.3242l7.9688-38.023c1.0977-5.25-2.2656-10.395-7.5156-11.496l-57.031-11.949c-5.25-1.1016-10.398 2.2656-11.496 7.5156l-7.9688 38.02c-1.0977 5.25 2.2656 10.398 7.5156 11.496l56.129 11.762h-98.098c-3.8984 0-7.5508 1.0352-10.707 2.8438z"/>
  <path fill="url(#gradient)" d="m436.23 471.09c-10.621 0-19.227 8.7227-19.227 19.477v19.477c0 10.754 8.6055 19.473 19.227 19.473h76.898c10.617 0 19.227-8.7188 19.227-19.473v-19.477c0-10.754-8.6094-19.477-19.227-19.477z"/>
  <path fill="url(#gradient)" d="m90.184 227.66c-10.617 0-19.227 8.7188-19.227 19.473v282.38c0 10.754 8.6094 19.477 19.227 19.477h461.4c10.617 0 19.227-8.7227 19.227-19.477v-282.38c0-10.754-8.6094-19.473-19.227-19.473zm-9.6133 301.86v-77.898h480.62v77.898c0 5.3789-4.3047 9.7383-9.6133 9.7383h-461.4c-5.3086 0-9.6133-4.3594-9.6133-9.7383zm38.449-214.22c-5.3086 0-9.6094 4.3594-9.6094 9.7344v48.688c0 5.3789 4.3008 9.7383 9.6094 9.7383h67.289c5.3086 0 9.6133-4.3594 9.6133-9.7383v-48.688c0-5.375-4.3047-9.7344-9.6133-9.7344zm27-57.859c-5.0508 1.0469-9.9219 3.0586-14.375 6.1133-1.1406 0.72656-2.2266 1.6914-2.4648 2.0117-0.66406 0.88672-0.72266 2.8164-0.17969 3.9414 0.35938 0.80469 1.3828 1.6094 2.043 1.6094 0.17969 0 1.4453-0.72266 2.8281-1.6875 6.4336-4.2656 11.789-5.9531 18.707-5.9531 7.1562 0 13.051 1.9297 19.426 6.3516 1.5625 1.1289 1.9844 1.2891 2.5273 1.1289 0.90234-0.24219 1.8047-1.2891 2.043-2.332 0.03125-0.125 0.054687-0.25 0.070312-0.36719l0.011719-0.078124 0.015625-0.12109c0.007813-0.085938 0.011719-0.16797 0.015625-0.24219 0.007812-0.14453 0.007812-0.25781 0.007812-0.32031-0.015624-0.042969-0.027343-0.10156-0.039062-0.16406-0.003906-0.050781-0.007812-0.10156-0.011719-0.15625-0.007812-0.13281-0.007812-0.27734-0.007812-0.40234 0-0.96484-1.1445-2.0898-3.9727-3.8594-4.6289-2.9766-9.3828-4.8281-14.676-5.793-2.8867-0.40234-8.8398-0.32031-11.969 0.32031zm-4.5117 15.605c-2.5234 1.1289-6.9141 3.9414-7.5156 4.8281-0.90234 1.2852-0.72266 3.7773 0.30078 4.8242 1.1406 1.0469 1.5625 0.96484 4.3281-0.80469 4.0898-2.7344 6.918-3.7812 11.43-4.3438 5.4141-0.72266 10.945 0.72656 16.121 4.1016 1.1992 0.80469 2.4023 1.5312 2.7031 1.6914 1.0859 0.48047 2.5273-0.72656 2.8867-2.2539 0.54297-2.332-0.78125-4.0195-4.9297-6.3555-8.1797-4.7422-17.023-5.2266-25.324-1.6875zm-2.6445 21.637c-0.54297-0.80469-0.66016-1.125-0.66016-2.1719 0-1.7695 0.66016-2.7344 3.125-4.2617 3.7891-2.4922 7.0977-3.457 11.309-3.457 4.332 0 7.2773 0.96484 11.309 3.6172 2.2852 1.5273 2.8867 2.2539 3.0664 3.7812 0.058593 0.40234-0.058594 1.207-0.17969 1.6094-0.30078 0.96484-1.082 1.7695-1.8633 2.0078-0.48438 0.082031-1.0234-0.16016-2.7695-1.2852-6.4336-4.2617-12.629-4.3438-18.945-0.16016-2.7656 1.8516-3.3086 1.8516-4.3906 0.32031z" fill-rule="evenodd"/>
 </g>
</svg>
