<?xml version="1.0" encoding="UTF-8"?>
<svg width="40pt" height="40pt" version="1.1" viewBox="0 0 700 700" xmlns="http://www.w3.org/2000/svg" xmlns:xlink="http://www.w3.org/1999/xlink">
 <defs>
    <linearGradient id="gradient">
      <stop offset="5%" stop-color="#D8AE5E" />
      <stop offset="95%" stop-color="#E7D49E" />
    </linearGradient>
 </defs>
 <g>
  <path fill="url(#gradient)" d="m385 35h-70c-19.25 0-35 15.75-35 35v17.5h-87.5c-9.625 0-17.5 7.875-17.5 17.5s7.875 17.5 17.5 17.5h315c9.625 0 17.5-7.875 17.5-17.5s-7.875-17.5-17.5-17.5h-87.5v-17.5c0-19.25-15.75-35-35-35zm-70 52.5v-17.5h70v17.5z"/>
  <path fill="url(#gradient)" xmlns="http://www.w3.org/2000/svg" d="m192.5 140c-4.8984 0-9.625 2.1016-12.949 5.7734-3.3242 3.6758-4.8984 8.5742-4.375 13.477l31.5 319.02c2.9766 26.602 25.375 46.727 52.148 46.727h182.35c26.773 0 49.176-20.125 52.148-46.898l31.5-318.85c0.52344-4.8984-1.0508-9.8008-4.375-13.477-3.3242-3.6758-8.0508-5.7734-12.949-5.7734zm266 334.43c-1.0508 8.9258-8.3984 15.574-17.324 15.574h-182.35c-8.9258 0-16.449-6.6484-17.324-15.398l-29.574-299.6h276.32l-29.574 299.43z"/>
 </g>
</svg>
