<?xml version="1.0" encoding="UTF-8"?>
<svg width="700pt" height="700pt" version="1.1" viewBox="120 120 400 400" xmlns="http://www.w3.org/2000/svg" xmlns:xlink="http://www.w3.org/1999/xlink">
 <defs>
  <linearGradient id="gradient">
      <stop offset="5%" stop-color="#D8AE5E" />
      <stop offset="95%" stop-color="#E7D49E" />
   </linearGradient>
 </defs>
 <g>
  <path fill="url(#gradient)" d="m350 176.96c-56.559 0-103.04 45.922-103.04 103.04 0 57.121 46.48 103.04 103.04 103.04s103.04-46.48 103.04-103.04-46.48-103.04-103.04-103.04zm0 183.68c-44.238 0-80.641-35.84-80.641-80.641s36.402-80.641 80.641-80.641 80.641 36.402 80.641 80.641-36.402 80.641-80.641 80.641z"/>
  <path fill="url(#gradient)" d="m491.12 271.04c-2.2383-1.1211-2.2383-3.3594-2.8008-3.9219 0-1.1211 0-2.8008 1.6797-4.4805 7.2812-7.2812 10.078-18.48 6.7188-28.559s-11.762-17.359-22.398-19.039c-2.2383-0.55859-3.3594-1.6797-3.9219-2.8008-0.55859-1.1211-1.1211-2.8008-0.55859-5.0391 3.3594-8.9609 2.2383-18.48-3.3594-25.762-6.7188-9.5195-19.039-14-30.238-11.199-3.3594 0.55859-6.7188-1.1211-7.2812-5.0391-1.1211-15.121-13.441-26.32-28-26.32-6.1602 0-12.32 2.2383-17.359 6.1602-1.1211 1.1211-2.8008 1.1211-3.3594 1.1211-1.6797 0-3.9219-0.55859-5.0391-3.3594-5.0391-9.5195-14.559-15.121-25.199-15.121s-20.16 5.6016-25.199 15.121c-1.1211 2.2383-3.3594 3.3594-5.0391 3.3594-1.1211 0-2.2383 0-3.3594-1.1211-5.0391-3.9219-11.199-6.1602-17.359-6.1602-15.121 0-27.441 11.762-28 26.32 0 3.9219-3.9219 6.1602-7.2812 5.0391-11.199-2.8008-23.52 1.6797-30.238 11.199-5.0391 7.8398-6.7188 17.359-3.3594 25.762 0.55859 2.2383 0 3.9219-0.55859 5.0391-0.55859 1.1211-1.6797 2.2383-3.9219 2.8008-10.641 1.6797-19.039 8.9609-22.398 19.039-3.3594 10.078-0.55859 20.719 6.7188 28.559 1.6797 1.6797 1.6797 3.3594 1.6797 4.4805 0 1.1211-0.55859 2.8008-2.8008 3.9219-8.9609 5.6016-13.441 15.68-12.32 26.32s7.8398 19.602 17.922 23.52c2.2383 1.1211 2.8008 2.8008 3.3594 3.3594 0.55859 1.1211 0.55859 2.8008-0.55859 5.0391-5.6016 8.3984-6.1602 19.602-1.1211 28.559 5.0391 8.9609 14.559 14.559 24.641 14.559h1.6797c2.2383 0 3.9219 1.1211 4.4805 2.2383 0.55859 0.55859 1.6797 2.2383 1.1211 4.4805-1.1211 8.3984 1.1211 16.238 6.1602 22.398 8.3984 9.5195 22.398 12.879 34.16 6.7188 0.55859-0.55859 1.6797-0.55859 2.8008-0.55859 2.2383 0 4.4805 1.1211 5.6016 4.4805 3.3594 12.32 14.559 20.719 27.441 20.719 8.3984 0 16.238-3.9219 21.84-10.078 1.6797-1.6797 3.3594-2.2383 4.4805-2.2383 1.1211 0 2.8008 0 4.4805 2.2383 5.6016 6.7188 13.441 10.078 21.84 10.078 12.879 0 24.078-8.3984 27.441-20.719 0.55859-2.8008 3.3594-4.4805 5.6016-4.4805 1.1211 0 1.6797 0 2.8008 0.55859 11.199 5.6016 25.762 2.8008 34.16-6.7188 5.0391-6.1602 7.8398-14.559 6.1602-22.398-0.55859-2.2383 0.55859-3.9219 1.1211-4.4805 0.55859-0.55859 2.2383-2.2383 4.4805-2.2383h1.6797c10.078 0 19.602-5.6016 24.641-14.559 5.0391-8.9609 4.4805-20.16-1.1211-28.559-1.1211-2.2383-1.1211-3.9219-0.55859-5.0391 0.55859-1.1211 1.1211-2.8008 3.3594-3.3594 10.078-3.9219 16.801-12.879 17.922-23.52-0.023437-10.641-5.0625-20.719-13.461-26.32zm-141.12 122.64c-62.719 0-113.68-50.961-113.68-113.68s50.961-113.68 113.68-113.68 113.68 50.961 113.68 113.68-50.961 113.68-113.68 113.68z"/>
  <path fill="url(#gradient)" d="m325.92 275.52c5.0391 0 8.9609-2.2383 12.32-6.1602 3.3594-4.4805 5.0391-9.5195 5.0391-16.238s-1.6797-12.32-5.0391-16.238c-3.3594-3.9219-7.2812-6.1602-12.32-6.1602s-8.9609 2.2383-12.32 6.1602c-3.3594 3.9219-4.4805 9.5195-4.4805 16.801 0 6.7188 1.6797 12.32 4.4805 16.238 2.7969 3.918 7.2773 5.5977 12.32 5.5977zm-3.9219-30.801c1.1211-1.6797 2.2383-2.8008 4.4805-2.8008 1.6797 0 3.3594 1.1211 3.9219 2.8008 1.1211 2.2383 1.6797 4.4805 1.6797 8.3984 0 3.9219-0.55859 6.1602-1.6797 8.3984s-2.2383 2.8008-3.9219 2.8008c-1.6797 0.003906-3.3594-1.1172-4.4805-2.7969-1.1211-2.2383-1.6797-4.4805-1.6797-8.3984 0-3.9219 0.55859-6.7227 1.6797-8.4023z"/>
  <path fill="url(#gradient)" d="m374.08 276.08c-5.0391 0-8.9609 2.2383-12.32 6.1602-3.3594 4.4805-5.0391 9.5195-5.0391 16.801 0 6.7188 1.6797 12.32 5.0391 16.238 3.3594 4.4805 7.2812 6.1602 12.32 6.1602s8.9609-2.2383 12.32-6.7188c3.3594-4.4805 5.0391-9.5195 5.0391-16.238s-1.6797-12.32-5.0391-16.238c-3.3594-3.9219-7.2773-6.1641-12.32-6.1641zm3.9219 30.801c-1.1211 2.2383-2.2383 2.8008-3.9219 2.8008-1.6797 0-3.3594-1.1211-3.9219-2.8008-1.1211-2.2383-1.6797-4.4805-1.6797-8.3984 0-3.9219 0.55859-6.7188 1.6797-8.3984 1.1211-1.6797 2.2383-2.8008 4.4805-2.8008 1.6797 0 3.3594 1.1211 3.9219 2.8008 1.1211 2.2383 1.6797 5.0391 1.6797 8.3984-0.55859 3.918-1.1172 6.7188-2.2383 8.3984z"/>
  <path fill="url(#gradient)" d="m389.2 238c0.55859-0.55859 0.55859-1.6797 0.55859-2.2383 0-1.6797-0.55859-2.8008-1.6797-3.9219s-2.2383-1.6797-3.3594-1.6797-2.2383 0-2.8008 0.55859c-1.1211 0.55859-1.6797 1.1211-2.8008 2.2383l-66.641 78.398c-0.55859 1.1211-1.6797 1.6797-1.6797 2.8008-0.55859 0.55859-0.55859 1.6797-0.55859 2.2383 0 1.1211 0.55859 2.2383 1.6797 3.3594 1.1211 1.1211 2.2383 1.6797 3.3594 1.6797s2.2383 0 2.8008-0.55859c1.1211-0.55859 1.6797-1.1211 2.8008-2.2383l67.199-77.84c0.5625-1.1172 1.1211-1.6758 1.1211-2.7969z"/>
 </g>
</svg>
