<?xml version="1.0" encoding="UTF-8"?>
<svg width="40pt" height="40pt" version="1.1" viewBox="0 0 700 700" xmlns="http://www.w3.org/2000/svg" xmlns:xlink="http://www.w3.org/1999/xlink">
 <defs>
    <linearGradient id="gradient">
      <stop offset="5%" stop-color="#D8AE5E" />
      <stop offset="95%" stop-color="#E7D49E" />
    </linearGradient>
 </defs>
 <g>
  <path fill="url(#gradient)" d="m396.98 87.527-246.06 246.07c-4.3594 4.2578-7.2109 9.8203-8.1211 15.848l-16.242 114.96c-1.3906 9.6172 1.4453 19.363 7.7812 26.727 6.332 7.3672 15.547 11.629 25.262 11.691 1.3984 0.085937 2.8008 0.085937 4.1992 0l117.04-14.504c6.1914-0.77344 11.945-3.5938 16.352-8.0078l246.23-246.34c26.156-26.16 36.375-64.289 26.797-100.02-9.5742-35.734-37.484-63.648-73.219-73.223-35.734-9.5742-73.859 0.64063-100.02 26.801zm-132.44 346.14-78.398 9.7422 11.199-76.777 200.48-200.48 67.199 67.199zm253.46-272.95c0.011719 12.32-4.7891 24.156-13.383 32.984l-67.199-67.199h-0.003907c9.0039-8.6992 21.074-13.5 33.594-13.352 12.516 0.14453 24.473 5.2188 33.27 14.125 8.8008 8.9062 13.73 20.922 13.723 33.441z"/>
 </g>
</svg>

