<svg version="1.1" id="Layer_1" xmlns="http://www.w3.org/2000/svg" xmlns:xlink="http://www.w3.org/1999/xlink" x="0px" y="0px" width="60px" viewBox="0 0 224 240" enable-background="new 0 0 224 240" xml:space="preserve">
    <defs>
        <linearGradient id="gradient">
            <stop offset="5%" stop-color="#D8AE5E" />
            <stop offset="95%" stop-color="#E7D49E" />
        </linearGradient>
    </defs>

    <path fill="url(#gradient)" opacity="1.000000" stroke="none" 
                    d="
                M41.279366,52.700027 
                    C45.468521,44.860832 51.698883,41.400871 60.203098,41.610912 
                    C67.853142,41.799854 75.513916,41.771683 83.164886,41.605812 
                    C86.558327,41.532249 87.845718,42.793266 88.059669,46.181248 
                    C89.018120,61.358505 89.090942,61.352715 73.897064,61.339737 
                    C70.402565,61.336750 66.903282,61.459293 63.415005,61.313465 
                    C60.397518,61.187328 59.260410,62.421799 59.316250,65.423370 
                    C59.440037,72.077164 59.217632,78.738365 59.391724,85.389854 
                    C59.483162,88.883476 58.033310,90.201035 54.686756,90.092270 
                    C50.863319,89.968018 47.033588,90.050560 43.207291,89.995293 
                    C41.408245,89.969307 39.683899,89.474052 39.770660,87.288658 
                    C40.223640,75.878235 38.125702,64.365891 41.279366,52.700027 
                z"/>
                <path fill="url(#gradient)" opacity="1.000000" stroke="none" 
                    d="
                M88.052849,172.089600 
                    C88.046356,184.374313 88.046356,184.375854 76.059265,184.374680 
                    C70.069992,184.374100 64.078819,184.461456 58.091873,184.341370 
                    C47.843742,184.135834 39.793152,176.069199 39.675068,165.877869 
                    C39.578697,157.560471 39.788364,149.237762 39.584923,140.924194 
                    C39.494560,137.231628 40.879383,135.846420 44.495457,135.908386 
                    C62.774521,136.221741 58.825817,133.580719 59.378170,149.881897 
                    C59.534485,154.495148 57.382874,160.323761 60.309284,163.407745 
                    C63.475727,166.744690 69.457695,164.286667 74.194054,164.636902 
                    C76.510529,164.808228 78.850212,164.660965 81.179382,164.665955 
                    C87.918144,164.680389 87.918144,164.682007 88.052849,172.089600 
                z"/>
                <path fill="url(#gradient)" opacity="1.000000" stroke="none" 
                    d="
                M161.109955,164.287949 
                    C162.991745,162.827438 162.615036,161.067123 162.635574,159.444092 
                    C162.684036,155.613403 162.459366,151.768906 162.711121,147.954147 
                    C162.957169,144.225769 160.743591,139.004822 163.893677,137.085693 
                    C168.545090,134.251923 174.579147,135.982025 180.023178,136.227127 
                    C182.235992,136.326736 182.322189,138.278793 182.322418,140.002029 
                    C182.323608,149.163559 182.580872,158.335220 182.232071,167.483658 
                    C181.903931,176.090256 173.889709,183.947495 165.224380,184.249695 
                    C156.239944,184.563019 147.236084,184.278900 138.242340,184.388580 
                    C135.248901,184.425064 133.974991,183.129700 133.991089,180.245361 
                    C134.011520,176.581039 134.064743,172.913666 133.945892,169.252747 
                    C133.834579,165.823792 135.340652,164.572189 138.749603,164.622284 
                    C146.072464,164.729874 153.399704,164.539047 161.109955,164.287949 
                z"/>
                <path fill="url(#gradient)" opacity="1.000000" stroke="none" 
                    d="
                M133.960846,54.860706 
                    C133.987061,41.651588 133.987061,41.650356 146.640671,41.650692 
                    C152.305435,41.650845 157.971436,41.581963 163.634674,41.676758 
                    C174.155533,41.852867 182.238205,49.972038 182.328110,60.458355 
                    C182.398102,68.621689 182.179626,76.790779 182.413956,84.947990 
                    C182.528625,88.939941 180.966965,90.073357 177.163940,90.133865 
                    C162.663788,90.364601 162.665436,90.468620 162.662445,75.700485 
                    C162.659561,61.334515 162.659561,61.334507 148.339417,61.332966 
                    C145.507034,61.332664 142.646866,61.080193 139.848480,61.388512 
                    C135.085526,61.913277 133.456635,59.753967 133.960846,54.860706 
                z"/>
                <path fill="url(#gradient)" opacity="1.000000" stroke="none" 
                    d="
                M110.995270,146.537384 
                    C101.857849,146.525864 94.487572,143.223846 88.040817,137.478378 
                    C85.450272,135.169662 84.630409,133.108109 87.777946,130.652435 
                    C88.947250,129.740158 89.903610,128.557755 90.977074,127.519203 
                    C93.239227,125.330688 95.170403,122.394035 97.873680,121.172653 
                    C101.086426,119.721100 102.554100,124.021515 105.214485,125.209846 
                    C110.793884,127.702034 115.663116,126.931122 119.852898,122.824280 
                    C122.558434,120.172310 124.428741,120.420525 126.769180,123.136688 
                    C129.038742,125.770607 131.518799,128.260361 134.142426,130.542068 
                    C137.079681,133.096542 136.506912,134.918655 133.869064,137.372055 
                    C127.489227,143.305771 120.125755,146.491150 110.995270,146.537384 
                z"/>
                <path fill="url(#gradient)" opacity="1.000000" stroke="none" 
                    d="
                M73.319946,102.124207 
                    C71.911568,97.056122 73.208466,93.195908 77.221649,90.478294 
                    C80.713226,88.113907 84.402153,88.180305 87.953941,90.460930 
                    C91.553299,92.772087 92.780144,96.246536 92.261658,100.328041 
                    C91.697540,104.768730 89.071663,107.472763 84.703773,108.405624 
                    C79.687889,109.476891 76.509789,107.772675 73.319946,102.124207 
                z"/>
                <path fill="url(#gradient)" opacity="1.000000" stroke="none" 
                    d="
                M133.157349,91.057434 
                    C137.919418,87.839058 142.341141,88.108490 146.221512,91.594170 
                    C149.282303,94.343636 150.150558,98.060402 148.716019,102.044044 
                    C147.294296,105.992142 144.451508,108.333275 140.219391,108.604187 
                    C136.082291,108.869019 132.580917,107.350929 130.768967,103.524529 
                    C128.684906,99.123482 129.030762,94.843277 133.157349,91.057434 
                z"/>
</svg>