<svg width="700pt" height="700pt" version="1.1" viewBox="0 0 700 700" xmlns="http://www.w3.org/2000/svg">
 <defs>
    <linearGradient id="gradient">
      <stop offset="5%" stop-color="#D8AE5E" />
      <stop offset="95%" stop-color="#E7D49E" />
    </linearGradient>
 </defs>
 <path fill="url(#gradient)" d="m350 23.332c-68.07 0-133.36 27.043-181.49 75.176-48.133 48.137-75.176 113.42-75.176 181.49s27.043 133.36 75.176 181.49c48.137 48.133 113.42 75.176 181.49 75.176s133.36-27.043 181.49-75.176c48.133-48.137 75.176-113.42 75.176-181.49s-27.043-133.36-75.176-181.49c-48.137-48.133-113.42-75.176-181.49-75.176zm0 420c-6.1875 0-12.125-2.457-16.5-6.832s-6.832-10.312-6.832-16.5 2.457-12.125 6.832-16.5 10.312-6.832 16.5-6.832 12.125 2.457 16.5 6.832 6.832 10.312 6.832 16.5-2.457 12.125-6.832 16.5-10.312 6.832-16.5 6.832zm116.67-210c0 18.566-7.375 36.371-20.504 49.5-13.129 13.125-30.934 20.5-49.496 20.5-6.1914 0-12.125 2.4609-16.5 6.8359s-6.8359 10.309-6.8359 16.5v23.332c0 8.3359-4.4453 16.039-11.664 20.207s-16.117 4.168-23.336 0-11.664-11.871-11.664-20.207v-23.332c0-18.566 7.375-36.371 20.5-49.5 13.129-13.125 30.934-20.5 49.5-20.5 6.1875 0 12.121-2.4609 16.496-6.8359 4.3789-4.375 6.8359-10.309 6.8359-16.5v-23.332c0-6.1875-2.457-12.125-6.8359-16.5-4.375-4.375-10.309-6.832-16.496-6.832h-93.336c-6.1875 0-12.121 2.457-16.496 6.832-4.3789 4.375-6.8359 10.312-6.8359 16.5v23.332c0 8.3359-4.4492 16.039-11.668 20.207-7.2188 4.168-16.113 4.168-23.332 0-7.2188-4.168-11.668-11.871-11.668-20.207v-23.332c0-18.566 7.375-36.371 20.504-49.496 13.129-13.129 30.934-20.504 49.496-20.504h93.336c18.562 0 36.367 7.375 49.496 20.504 13.129 13.125 20.504 30.93 20.504 49.496z"/>
</svg>
