<svg width="200pt" height="206pt" version="1.1" viewBox="0 0 700 700" xmlns="http://www.w3.org/2000/svg" xmlns:xlink="http://www.w3.org/1999/xlink">
 <defs>
    <linearGradient id="gradient">
      <stop offset="5%" stop-color="#D8AE5E" />
      <stop offset="95%" stop-color="#E7D49E" />
    </linearGradient>
 </defs>
 <g>
  <path fill="url(#gradient)" d="m350 70c-115.85 0-210 94.148-210 210s94.148 210 210 210 210-94.148 210-210-94.148-210-210-210zm0 385c-96.602 0-175-78.398-175-175s78.398-175 175-175 175 78.398 175 175-78.398 175-175 175z"/>
  <path fill="url(#gradient)" d="m365.05 159.25c-33.602-8.3984-71.051 12.949-81.199 45.852-3.1523 9.4492 2.0977 19.25 11.199 22.047 9.1016 2.8008 18.898-2.1016 22.051-11.551 4.8984-15.398 23.797-26.246 39.898-22.398 15.75 3.8516 27.648 22.402 24.5 38.5-2.8008 16.102-19.949 29.051-36.398 26.949-4.9023-0.69922-10.152 1.0508-13.652 4.2031-3.8477 3.5-5.9492 8.0469-5.9492 13.297l-0.35156 54.602c0 9.8008 7.6992 17.5 17.5 17.5 9.8008 0 17.5-7.6992 17.5-17.5l0.35156-38.148c26.949-5.25 50.75-27.301 55.648-54.949 6.3008-33.953-17.148-70.004-51.098-78.402z"/>
  <path fill="url(#gradient)" d="m343.35 363.65h-0.35156c-9.4492 0-17.148 8.0508-17.5 17.5v3.8516c0 9.4492 7.6992 15.75 17.148 16.102h0.35156c9.4492 0 17.148-8.75 17.5-18.199v-2.8008c-0.35156-9.4531-7.6992-16.453-17.148-16.453z"/>
 </g>
</svg>
