<svg width="200pt" height="206pt" version="1.1" viewBox="0 0 700 700" xmlns="http://www.w3.org/2000/svg" xmlns:xlink="http://www.w3.org/1999/xlink">
 <defs>
    <linearGradient id="gradient">
      <stop offset="5%" stop-color="#D8AE5E" />
      <stop offset="95%" stop-color="#E7D49E" />
    </linearGradient>
 </defs>
 <g>
  <path fill="url(#gradient)" d="m148.75 35c-24.5 0-43.75 19.25-43.75 43.75s19.25 43.75 43.75 43.75h35v358.75c0 24.5 19.25 43.75 43.75 43.75h323.75c24.5 0 43.75-19.25 43.75-43.75s-19.25-43.75-43.75-43.75h-8.75v-358.75c0-24.5-19.25-43.75-43.75-43.75zm0 8.75c19.25 0 35 15.75 35 35v35h-35c-19.25 0-35-15.75-35-35s15.75-35 35-35zm26.285 0h323.71c19.25 0 35 15.75 35 35v358.75h-306.25c-2.625 0-4.375 1.75-4.375 4.375s1.75 4.375 4.375 4.375c19.25 0 35 15.75 35 35s-15.75 35-35 35-35-15.75-35-35v-402.5c0-14.52-6.8594-27.082-17.465-35zm100.59 35c-2.625 0-4.375 1.75-4.375 4.375v26.25c0 2.625 1.75 4.375 4.375 4.375h175c2.625 0 4.375-1.75 4.375-4.375v-26.25c0-2.625-1.75-4.375-4.375-4.375zm4.375 8.75h166.25v17.5h-166.25zm-4.375 61.25c-2.625 0-4.375 1.75-4.375 4.375s1.75 4.375 4.375 4.375h218.75c2.625 0 4.375-1.75 4.375-4.375s-1.75-4.375-4.375-4.375zm-43.75 26.25c-2.625 0-4.375 1.75-4.375 4.375s1.75 4.375 4.375 4.375h262.5c2.625 0 4.375-1.75 4.375-4.375s-1.75-4.375-4.375-4.375zm0 26.25c-2.625 0-4.375 1.75-4.375 4.375s1.75 4.375 4.375 4.375h262.5c2.625 0 4.375-1.75 4.375-4.375s-1.75-4.375-4.375-4.375zm0 26.25c-2.625 0-4.375 1.75-4.375 4.375s1.75 4.375 4.375 4.375h262.5c2.625 0 4.375-1.75 4.375-4.375s-1.75-4.375-4.375-4.375zm0 26.25c-2.625 0-4.375 1.75-4.375 4.375s1.75 4.375 4.375 4.375h262.5c2.625 0 4.375-1.75 4.375-4.375s-1.75-4.375-4.375-4.375zm0 26.25c-2.625 0-4.375 1.75-4.375 4.375s1.75 4.375 4.375 4.375h192.5c2.625 0 4.375-1.75 4.375-4.375s-1.75-4.375-4.375-4.375zm64.977 24.027c-3.2422-0.24609-6.3477 0.25391-8.9727 2.2227-1.75 0.875-4.3867 0.875-6.1367 0-3.5-1.75-7.8594-2.6172-12.234-1.7422-4.375 1.75-7.8906 4.3594-9.6406 7.8594-0.875 2.625-2.6211 3.5039-5.2461 3.5039-4.375 0-8.7383 1.75-11.363 4.375-2.625 3.5-4.375 7.0078-4.375 11.383 0 1.75-1.7539 4.3711-3.5039 5.2461-4.375 2.625-7.0039 5.2461-7.8789 9.6211s-0.88281 8.7539 1.7422 12.254c0.875 1.75 0.875 4.3672 0 6.1172-1.75 3.5-2.6172 7.8789-1.7422 12.254 1.75 4.375 4.3789 7.8711 7.8789 9.6211 2.625 0.875 3.5039 2.6406 3.5039 5.2656 0 4.375 0.875 8.7383 4.375 11.363s6.9883 4.375 11.363 4.375c1.75 0 4.3711 1.7539 5.2461 3.5039 2.625 4.375 5.2656 7.0039 9.6406 7.8789s8.7344 0.86328 12.234-1.7617c1.75-0.875 4.3867-0.875 6.1367 0 2.625 1.75 5.2539 2.6328 7.8789 2.6328 0.875 0 2.625 0.003906 4.375-0.87109 4.375-1.75 7.8711-4.3789 9.6211-7.8789 0.875-2.625 2.6211-3.5039 5.2461-3.5039 4.375 0 8.7578-1.75 11.383-4.375 2.625-3.5 4.375-6.9883 4.375-11.363 0-1.75 1.7344-4.3906 3.4844-5.2656 4.375-2.625 7.0039-5.2461 7.8789-9.6211s0.88281-8.7539-1.7422-12.254c-0.875-1.75-0.875-4.3672 0-6.1172 1.75-3.5 2.6172-7.8789 1.7422-12.254-1.75-4.375-4.3789-7.8711-7.8789-9.6211-2.625-0.875-3.4844-2.6211-3.4844-5.2461 0-4.375-0.875-8.7578-4.375-11.383s-7.0078-4.375-11.383-4.375c-1.75 0-4.3711-1.7539-5.2461-3.5039-2.625-4.375-5.2461-6.9844-9.6211-7.8594-1.0938-0.21875-2.2031-0.39844-3.2812-0.48047zm118.77 2.2227c-2.625 0-4.375 1.75-4.375 4.375s1.75 4.375 4.375 4.375h78.75c2.625 0 4.375-1.75 4.375-4.375s-1.75-4.375-4.375-4.375zm-144.38 8.75c1.75 0 3.4961-0.003906 5.2461 0.87109 4.375 3.5 10.508 3.5 15.758 0 1.75-0.875 3.4961-0.87109 5.2461-0.87109 1.75 0.875 2.6289 1.7539 3.5039 3.5039 2.625 5.25 7.8711 7.8789 13.996 7.8789 1.75 0 3.5 0.86719 4.375 1.7422s1.7422 2.625 1.7422 4.375c0 6.125 2.6289 11.371 7.8789 13.996 1.75 0.875 2.6289 1.7539 3.5039 3.5039 0 1.75 0.003906 3.4961-0.87109 5.2461-3.5 4.375-3.5 10.508 0 15.758 0.875 1.75 1.7461 3.4961 0.87109 5.2461s-1.7539 2.6289-3.5039 3.5039c-5.25 2.625-7.8789 7.8711-7.8789 13.996 0 1.75-0.86719 3.5-1.7422 4.375s-2.625 1.7422-4.375 1.7422c-6.125-0.875-11.371 2.6289-13.996 7.8789-0.875 1.75-1.7539 2.6289-3.5039 3.5039-1.75 0-3.4961 0.003906-5.2461-0.87109-2.625-1.75-5.2539-2.6328-7.8789-2.6328s-5.2539 0.88281-7.8789 2.6328c-1.75 0.875-3.4961 0.87109-5.2461 0.87109-1.75-0.875-2.6289-1.7539-3.5039-3.5039-2.625-5.25-7.8711-7.8789-13.996-7.8789-1.75 0-3.5-0.86719-4.375-1.7422s-1.7422-2.625-1.7422-4.375c0-6.125-2.6289-11.371-7.8789-13.996-1.75-0.875-2.6289-1.7539-3.5039-3.5039 0-1.75-0.003906-3.4961 0.87109-5.2461 3.5-4.375 3.5-10.508 0-15.758-0.875-1.75-1.7461-3.4961-0.87109-5.2461s1.7539-2.6289 3.5039-3.5039c5.25-2.625 7.8789-7.8711 7.8789-13.996 0-1.75 0.86719-3.5 1.7422-4.375s2.625-1.7422 4.375-1.7422c6.125 0.875 11.371-2.6289 13.996-7.8789 0.875-1.75 1.7539-2.6289 3.5039-3.5039zm13.125 13.125c-19.25 0-35 15.75-35 35s15.75 35 35 35 35-15.75 35-35-15.75-35-35-35zm96.25 4.375c-2.625 0-4.375 1.75-4.375 4.375s1.75 4.375 4.375 4.375h113.75c2.625 0 4.375-1.75 4.375-4.375s-1.75-4.375-4.375-4.375zm-96.25 4.375c14.875 0 26.25 11.375 26.25 26.25s-11.375 26.25-26.25 26.25-26.25-11.375-26.25-26.25 11.375-26.25 26.25-26.25zm0.10156 7.4336c-0.76562 0-1.4062 0.44141-1.8438 1.3164l-3.5039 7.8789c0 0.875-0.88672 1.7422-1.7617 1.7422l-8.75 0.87109c-2.625 0.875-3.4922 2.625-1.7422 4.375l6.1172 6.1367c0.875 0 0.89062 0.86719 0.89062 1.7422l-1.7617 8.75c0 1.75 1.7539 3.5078 3.5039 2.6328l7.8789-4.375h2.6133l7.8789 4.375c1.75 0.875 3.5039-0.88281 3.5039-2.6328l-1.7422-8.75s-0.003906-0.86719 0.87109-1.7422l6.1172-6.1367c0.875-1.75 0.007812-4.375-1.7422-4.375l-8.75-0.87109c-0.875-0.875-1.7617-0.86719-1.7617-1.7422l-3.4844-7.8789c-0.875-0.875-1.7656-1.3164-2.5312-1.3164zm96.148 14.441c-2.625 0-4.375 1.75-4.375 4.375s1.75 4.375 4.375 4.375h113.75c2.625 0 4.375-1.75 4.375-4.375s-1.75-4.375-4.375-4.375zm17.5 25.379c-7.875 0-15.742 4.3633-19.242 11.363-0.875 2.625-0.007812 5.2617 1.7422 6.1367 2.625 0.875 5.2422-0.011718 6.1172-1.7617 4.375-7 16.625-7.8711 21.875-0.87109 0 0.875 1.7578 1.7617 2.6328 1.7617 1.75 0 2.6289-0.015624 3.5039-0.89062 3.5-2.625 8.7383-1.7344 11.363 0.89062 0.875 0.875 2.625 1.7461 4.375 0.87109 1.75 0 2.6328-1.7539 2.6328-3.5039 0-2.625 1.75-4.375 4.375-4.375s4.375 1.75 4.375 4.375c0 1.75 0.88281 2.6289 2.6328 3.5039s3.5 0.003906 4.375-0.87109c3.5-3.5 7.8633-3.5156 11.363-0.89062 0.875 0.875 2.6289 0.89062 3.5039 0.89062s1.7578-0.88672 2.6328-1.7617c5.25-7.875 17.5-7.0039 21.875 0.87109 0.875 1.75 1.7344 2.6328 3.4844 2.6328h2.6328c2.625-1.75 2.6172-4.3672 1.7422-6.1172-4.375-7-11.367-11.383-19.242-11.383-5.25 0-10.492 2.6172-14.867 6.1172-4.375-1.75-9.6406-1.75-14.016 0-1.75-3.5-6.1172-6.1172-10.492-6.1172s-8.7422 2.6211-10.492 5.2461c-4.375-1.75-9.6406-1.75-14.016 0-4.375-4.375-9.6172-6.1172-14.867-6.1172zm-17.5 27.121c-2.625 0-4.375 1.75-4.375 4.375s1.75 4.375 4.375 4.375h113.75c2.625 0 4.375-1.75 4.375-4.375s-1.75-4.375-4.375-4.375zm-126.88 35h297.5c19.25 0 35 15.75 
  35 35s-15.75 35-35 35h-297.5c10.5-7.875 17.5-21 17.5-35s-7-27.125-17.5-35z"/>
 </g>
</svg>
