<?xml version="1.0" encoding="UTF-8"?>
<svg width="700pt" height="700pt" version="1.1" viewBox="0 0 700 700" xmlns="http://www.w3.org/2000/svg" xmlns:xlink="http://www.w3.org/1999/xlink">
 <defs>
  <linearGradient id="gradient">
      <stop offset="5%" stop-color="#D8AE5E" />
      <stop offset="95%" stop-color="#E7D49E" />
    </linearGradient>
 </defs>
 <g>
  <path fill="url(#gradient)" d="m595 513.33h-478.33v-478.33c0-6.4414-5.2266-11.668-11.668-11.668s-11.668 5.2266-11.668 11.668v490c0 3.0938 1.2305 6.0625 3.418 8.25s5.1562 3.418 8.25 3.418h490c6.4414 0 11.668-5.2266 11.668-11.668s-5.2266-11.668-11.668-11.668z"/>
  <path fill="url(#gradient)" d="m175 478.33c9.2969-0.007812 18.207-3.7109 24.766-10.297 6.5625-6.5859 10.23-15.512 10.203-24.809-0.027344-9.293-3.7539-18.195-10.352-24.742l65.449-185.15c1.0898 0.066407 2.1797 0.066407 3.2656 0 5.1797-0.007812 10.289-1.2031 14.934-3.5l52.035 62.418c-5.5078 6.3086-8.5703 14.379-8.6328 22.75 0 12.504 6.668 24.059 17.5 30.312 10.828 6.25 24.168 6.25 35 0 10.828-6.2539 17.5-17.809 17.5-30.312-0.03125-5.2148-1.2266-10.355-3.5-15.051l46.668-46.668-0.003907 0.003906c9.4922 4.6719 20.613 4.6719 30.102 0l46.668 46.668v-0.003906c-2.1953 4.7109-3.3086 9.8555-3.2695 15.051 0 9.2812 3.6875 18.184 10.254 24.75 6.5625 6.5625 15.465 10.25 24.746 10.25 9.2852 0 18.188-3.6875 24.75-10.25 6.5625-6.5664 10.25-15.469 10.25-24.75s-3.6875-18.184-10.25-24.75c-6.5625-6.5625-15.465-10.25-24.75-10.25-5.2148 0.03125-10.355 1.2266-15.047 3.5l-46.668-46.668c2.25-4.7383 3.4062-9.9219 3.3828-15.164 0-12.504-6.6719-24.059-17.5-30.312-10.828-6.25-24.172-6.25-35 0-10.828 6.2539-17.5 17.809-17.5 30.312 0.03125 5.2148 1.2266 10.355 3.5 15.047l-46.668 46.668c-4.7383-2.25-9.9219-3.4062-15.164-3.3828-1.9219 0.015625-3.8359 0.21094-5.7188 0.58203l-55.301-66.383c-0.25781-0.29688-0.57422-0.53516-0.93359-0.69922 3.7734-7.7617 4.543-16.645 2.1641-24.938-2.3789-8.2969-7.7344-15.422-15.047-20.008-7.3086-4.5859-16.059-6.3086-24.562-4.8359-8.5 1.4688-16.16 6.0312-21.508 12.805-5.3477 6.7734-8.0039 15.281-7.457 23.895 0.54687 8.6133 4.2539 16.719 10.41 22.766l-65.449 185.15c-1.0859-0.0625-2.1758-0.0625-3.2656 0-12.504 0-24.059 6.6719-30.312 17.5-6.25 10.832-6.25 24.172 0 35 6.2539 10.832 17.809 17.5 30.312 17.5zm373.33-175c4.7188 0 8.9727 2.8438 10.781 7.2031 1.8047 4.3594 0.80469 9.3789-2.5312 12.715-3.3359 3.3359-8.3555 4.3359-12.715 2.5273-4.3594-1.8047-7.1992-6.0586-7.1992-10.777 0-6.4414 5.2227-11.668 11.664-11.668zm-93.332-93.332c4.7188 0 8.9727 2.8438 10.777 7.2031 1.8086 4.3594 0.80859 9.375-2.5273 12.715-3.3359 3.3359-8.3555 4.332-12.715 2.5273-4.3594-1.8047-7.2031-6.0586-7.2031-10.777 0-6.4453 5.2266-11.668 11.668-11.668zm-81.668 105c0 4.7188-2.8398 8.9727-7.1992 10.777-4.3594 1.8086-9.3789 0.80859-12.715-2.5273-3.3359-3.3359-4.3359-8.3555-2.5312-12.715 1.8086-4.3594 6.0625-7.2031 10.781-7.2031 3.0938 0 6.0586 1.2305 8.25 3.418 2.1875 2.1875 3.4141 5.1562 3.4141 8.25zm-105-128.33c4.7188 0 8.9727 2.8398 10.781 7.1992 1.8047 4.3594 0.80469 9.3789-2.5312 12.715-3.3359 3.3359-8.3555 4.3359-12.715 2.5312-4.3594-1.8086-7.1992-6.0625-7.1992-10.781 0-6.4414 5.2227-11.664 11.664-11.664zm-93.332 245c4.7188 0 8.9727 2.8398 10.777 7.1992 1.8086 4.3594 0.80859 9.3789-2.5273 12.715-3.3359 3.3359-8.3555 4.3359-12.715 2.5312-4.3594-1.8086-7.2031-6.0625-7.2031-10.781 0-6.4414 5.2266-11.664 11.668-11.664z"/>
 </g>
</svg>
