<svg width="700pt" height="700pt" version="1.1" viewBox="0 0 630 630" xmlns="http://www.w3.org/2000/svg" xmlns:xlink="http://www.w3.org/1999/xlink">
 <defs>
    <linearGradient id="gradient">
      <stop offset="5%" stop-color="#D8AE5E" />
      <stop offset="95%" stop-color="#E7D49E" />
    </linearGradient>
 </defs>
 <g>
  <path fill="url(#gradient)" d="m188.12 315h201.26v17.5h-201.26z"/>
  <path fill="url(#gradient)" d="m341.25 253.75c0-13.926-5.5312-27.277-15.375-37.125-9.8477-9.8438-23.199-15.375-37.125-15.375s-27.277 5.5312-37.125 15.375c-9.8438 9.8477-15.375 23.199-15.375 37.125s5.5312 27.277 15.375 37.125c9.8477 9.8438 23.199 15.375 37.125 15.375 13.918-0.015625 27.266-5.5508 37.105-15.395 9.8438-9.8398 15.379-23.188 15.395-37.105zm-61.25 30.625c-4.6562 0.050781-9.1367-1.7773-12.43-5.0703-3.293-3.293-5.1211-7.7734-5.0703-12.43h8.75c-0.023438 2.3281 0.89062 4.5664 2.5352 6.2148 1.6484 1.6445 3.8867 2.5586 6.2148 2.5352h4.375v-17.5h-4.375c-6.2539 0-12.031-3.3359-15.156-8.75s-3.125-12.086 0-17.5 8.9023-8.75 15.156-8.75h4.375v-8.75h8.75v8.75h4.375c4.6211 0.0625 9.0391 1.9258 12.309 5.1914 3.2656 3.2695 5.1289 7.6875 5.1914 12.309h-8.75c-0.17578-4.7578-3.9922-8.5742-8.75-8.75h-4.375v17.5h4.375c6.2539 0 12.031 3.3359 15.156 8.75s3.125 12.086 0 17.5-8.9023 8.75-15.156 8.75h-4.375v8.75h-8.75v-8.75z"/>
  <path fill="url(#gradient)" d="m284.38 231.88h-4.375c-4.832 0-8.75 3.918-8.75 8.75s3.918 8.75 8.75 8.75h4.375z"/>
  <path fill="url(#gradient)" d="m385 23.688v72.562h72.562z"/>
  <path fill="url(#gradient)" d="m310.67 192.5h78.363l-100.2-69.973-100.35 69.973z"/>
  <path fill="url(#gradient)" d="m306.25 266.88c0.023438-2.3281-0.89062-4.5664-2.5352-6.2148-1.6484-1.6445-3.8867-2.5586-6.2148-2.5352h-4.375v17.5h4.375c2.3281 0.023438 4.5664-0.89062 6.2148-2.5352 1.6445-1.6484 2.5586-3.8867 2.5352-6.2148z"/>
  <path fill="url(#gradient)" d="m452.79 461.63c-1.7344 1.6406-4.4492 1.6406-6.1836 0l-26.301-26.316-13.922 13.926 43.312 43.312 86.625-86.625-13.941-13.926z"/>
  <path fill="url(#gradient)" d="m472.5 332.5c-27.848 0-54.555 11.062-74.246 30.754s-30.754 46.398-30.754 74.246 11.062 54.555 30.754 74.246 46.398 30.754 74.246 30.754 54.555-11.062 74.246-30.754 30.754-46.398 30.754-74.246c-0.03125-27.836-11.105-54.527-30.789-74.211-19.684-19.684-46.375-30.758-74.211-30.789zm73.094 76.535-92.809 92.809c-1.707 1.707-4.4766 1.707-6.1836 0l-49.5-49.496c-0.82031-0.82031-1.2852-1.9336-1.2852-3.0938s0.46484-2.2734 1.2852-3.0977l20.125-20.125c1.707-1.707 4.4766-1.707 6.1875 0l26.297 26.297 69.602-69.59c1.7344-1.6406 4.4492-1.6406 6.1875 0l20.125 20.125c1.6914 1.7148 1.6758 4.4727-0.03125 6.1719z"/>
  <path fill="url(#gradient)" d="m463.75 324.12v-219.12h-83.125c-2.418 0-4.375-1.957-4.375-4.375v-83.125h-253.75v472.5h249.14c-17.672-33.863-17.145-74.34 1.3984-107.73 18.543-33.395 52.625-55.238 90.711-58.145zm-284.38 12.754v-26.25c0-2.418 1.957-4.375 4.375-4.375h73.633c-18.516-11.008-29.863-30.957-29.863-52.5s11.348-41.492 29.863-52.5h-75.762c-2.8984 0.042969-5.4805-1.8203-6.3516-4.582-0.875-2.7617 0.16406-5.7695 2.5586-7.4023l105.84-73.938c3.0586-2.1211 7.1133-2.1211 10.172 0l105.83 73.934c2.3672 1.6484 3.3867 4.6406 2.5156 7.3906-0.86719 2.7461-3.4258 4.6094-6.3086 4.5977h-75.734c18.516 11.008 29.863 30.957 29.863 52.5s-11.348 41.492-29.863 52.5h73.605c1.1602 0 2.2734 0.46094 3.0938 1.2812s1.2812 1.9336 1.2812 3.0938v26.25c0 1.1602-0.46094 2.2734-1.2812 3.0938s-1.9336 1.2812-3.0938 1.2812h-210c-2.418 0-4.375-1.957-4.375-4.375zm13.125-118.12v-8.75h30.625v8.75h-17.5v70h17.5v8.75h-30.625v-8.75h4.375v-70zm192.5 70v8.75h-30.625v-8.75h17.5v-70h-17.5v-8.75h30.625v8.75h-4.375v70z"/>
 </g>
</svg>
