<?xml version="1.0" encoding="UTF-8"?>
<svg width="200pt" height="200pt" version="1.1" viewBox="0 0 700 700" xmlns="http://www.w3.org/2000/svg" xmlns:xlink="http://www.w3.org/1999/xlink">
 <defs>
    <linearGradient id="gradient">
      <stop offset="5%" stop-color="#D8AE5E" />
      <stop offset="95%" stop-color="#E7D49E" />
    </linearGradient>
 </defs>
 <g>
  <path fill="url(#gradient)" d="m547.85 117.6h-395.7c-12.871 0.011719-25.215 5.1328-34.316 14.234-9.1016 9.1016-14.223 21.445-14.234 34.316v227.7c0.011719 12.871 5.1328 25.215 14.234 34.316 9.1016 9.1016 21.445 14.223 34.316 14.234h395.7c12.871-0.011719 25.215-5.1328 34.316-14.234 9.1016-9.1016 14.223-21.445 14.234-34.316v-227.7c-0.011719-12.871-5.1328-25.215-14.234-34.316-9.1016-9.1016-21.445-14.223-34.316-14.234zm-79.184 28.727h76.609c3.0898 0 5.5977 2.5078 5.5977 5.6016 0 3.0898-2.5078 5.5977-5.5977 5.5977h-76.609c-3.0938 0-5.6016-2.5078-5.6016-5.5977 0-3.0938 2.5078-5.6016 5.6016-5.6016zm0 32.199h76.609c3.0898 0 5.5977 2.5078 5.5977 5.6016s-2.5078 5.5977-5.5977 5.5977h-76.609c-3.0938 0-5.6016-2.5039-5.6016-5.5977s2.5078-5.6016 5.6016-5.6016zm-63.84-14.504 20.328-20.273v0.003906c2.1836-2.1719 5.7109-2.1719 7.8945 0l20.328 20.328v-0.003906c2.1719 2.1875 2.1719 5.7148 0 7.8984l-20.273 20.328h0.003907c-2.1875 2.1719-5.7148 2.1719-7.8984 0l-20.273-20.273h0.003906c-1.0938-1.0391-1.7227-2.4727-1.7422-3.9805-0.023437-1.5078 0.56641-2.957 1.6289-4.0273zm-257.1 69.105c0-6.125 2.4297-12 6.7539-16.336 4.3281-4.3359 10.195-6.7773 16.32-6.793h74.199c6.1328 0 12.016 2.4375 16.355 6.7734 4.3359 4.3398 6.7734 10.219 6.7734 16.355v37.801c0 6.1211-2.4297 11.996-6.7539 16.332-4.3281 4.3359-10.195 6.7812-16.32 6.793h-74.254c-6.1172-0.011719-11.977-2.4492-16.297-6.7734-4.3242-4.3242-6.7617-10.184-6.7773-16.297zm1.7344 168.5h0.003906c-1.9648-0.007812-3.7812-1.0391-4.7891-2.7227-1.0117-1.6875-1.0625-3.7773-0.14062-5.5117l22.398-42h0.003906c1.4531-2.7344 4.8477-3.7773 7.5859-2.3242 2.7383 1.457 3.7773 4.8516 2.3242 7.5898l-22.398 42c-0.98047 1.8398-2.9023 2.9844-4.9844 2.9688zm22.902 0h0.003907c-1.9648-0.007812-3.7812-1.0391-4.7891-2.7227-1.0078-1.6875-1.0625-3.7773-0.13672-5.5117l22.398-42c1.4531-2.7344 4.8516-3.7773 7.5898-2.3242 2.7344 1.457 3.7773 4.8516 2.3242 7.5898l-22.398 42h-0.003907c-0.98047 1.8398-2.8984 2.9844-4.9844 2.9688zm22.902 0h0.007813c-1.9648-0.007812-3.7812-1.0391-4.793-2.7227-1.0078-1.6875-1.0586-3.7773-0.13672-5.5117l22.398-42c1.457-2.7344 4.8516-3.7773 7.5898-2.3242 2.7383 1.457 3.7773 4.8516 2.3242 7.5898l-22.398 42c-0.98047 1.8398-2.9023 2.9844-4.9844 2.9688zm22.902 0h0.007812c-1.9648-0.007812-3.7812-1.0391-4.7891-2.7227-1.0078-1.6875-1.0625-3.7773-0.14062-5.5117l22.398-42h0.003907c1.4531-2.7344 4.8516-3.7773 7.5859-2.3242 2.7383 1.457 3.7773 4.8516 2.3242 7.5898l-22.398 42c-0.96875 1.8203-2.8633 2.9609-4.9297 2.9688zm22.902 0h0.007813c-1.9609-0.007812-3.7812-1.0391-4.7891-2.7227-1.0078-1.6875-1.0586-3.7773-0.13672-5.5117l22.398-42c1.4531-2.7344 4.8516-3.7773 7.5898-2.3242 2.7383 1.457 3.7773 4.8516 2.3242 7.5898l-22.398 42h-0.003906c-0.96875 1.8203-2.8633 2.9609-4.9258 2.9688zm50.398-44.801-22.398 42h0.007813c-1.4531 2.7383-4.8477 3.7773-7.5859 2.3242-2.7383-1.4531-3.7773-4.8516-2.3242-7.5898l22.398-42c1.457-2.7344 4.8516-3.7773 7.5898-2.3242 2.7383 1.457 3.7773 4.8516 2.3242 7.5898zm259.45 25.199h0.011719c-0.0625 4.2383-1.7852 8.2852-4.8047 11.262-3.0156 2.9766-7.0859 4.6445-11.324 4.6445h-176.4c-4.2578-0.015625-8.3359-1.7148-11.348-4.7266-3.0117-3.0078-4.707-7.0898-4.7227-11.348v-15.062c0.015625-4.2695 1.7188-8.3555 4.7422-11.367 3.0234-3.0156 7.1172-4.707 11.387-4.707h176.34c4.2773 0 8.3789 1.6992 11.402 4.7266 3.0273 3.0234 4.7266 7.125 4.7266 11.402zm-4.918-124.43h-222.6c-3.0898 0-5.5977-2.5078-5.5977-5.6016s2.5078-5.6016 5.5977-5.6016h222.6c3.0938 0 5.6016 2.5078 5.6016 5.6016s-2.5078 5.6016-5.6016 5.6016z" fill-rule="evenodd"/>
  </g>
</svg>