<svg fill="#D8AE5E" width="700pt" height="700pt" version="1.1" viewBox="0 0 700 700" xmlns="http://www.w3.org/2000/svg" xmlns:xlink="http://www.w3.org/1999/xlink">
<defs>
    <linearGradient id="gradient">
      <stop offset="5%" stop-color="#D8AE5E" />
      <stop offset="95%" stop-color="#E7D49E" />
    </linearGradient>
</defs>
<g>
  <path fill="url(#gradient)" d="m193.76 531.44c12.32 0 22.398-10.078 22.398-22.398 0-12.32-10.078-22.398-22.398-22.398-3.3594 0-6.1602-2.8008-6.1602-6.1602v-69.445c0-15.121 8.3984-29.121 21.281-36.398l3.3594-1.6797c85.121-48.16 190.96-48.16 276.08 0l3.3594 1.6797c12.879 7.2812 21.281 21.281 21.281 36.398v69.441c0 3.3594-2.8008 6.1602-6.1602 6.1602h-243.6c-12.32 0-22.398 10.078-22.398 22.398 0 12.32 10.078 22.398 22.398 22.398h243.04c28 0 50.961-22.961 50.961-50.961v-69.438c0-31.359-16.801-59.922-43.68-75.602l-3.3594-1.6797c-98.559-56-221.2-56-320.32 0l-3.3594 1.6797c-26.879 15.684-43.68 44.801-43.68 75.602v69.441c0 28 22.961 50.961 50.961 50.961z"/>
  <path fill="url(#gradient)" d="m422.8 201.6c12.32 0 22.398-10.078 22.398-22.398v-48.16c0-31.922-17.359-61.039-45.359-76.16l-7.8398-4.4844c-26.32-14.559-57.68-14.559-84 0l-8.3984 4.4805c-28 15.121-45.359 44.801-45.359 76.16l-0.003907 48.16c0 31.922 17.359 61.039 45.359 76.16l8.3984 4.4805c12.879 7.2812 27.441 10.641 42 10.641s28.559-3.3594 42-10.641l8.3984-4.4805c10.641-6.1602 14.559-19.602 8.9609-30.238-6.1602-10.641-19.602-14.559-30.238-8.9609l-8.3984 4.4805c-12.879 7.2812-28 7.2812-40.879 0l-8.3984-4.4805c-13.441-7.2812-21.84-21.281-21.84-36.961v-48.16c0-15.68 8.3984-29.68 21.84-36.961l8.3984-4.4805c12.879-7.2812 28-7.2812 40.879 0l8.3984 4.4805c13.441 7.2812 21.84 21.84 21.84 36.961l0.003907 48.16c-0.5625 12.32 9.5195 22.402 21.84 22.402z"/>
</g>
</svg>
