<svg width="700pt" height="700pt" version="1.1" viewBox="0 0 700 700" xmlns="http://www.w3.org/2000/svg" xmlns:xlink="http://www.w3.org/1999/xlink">
 <defs>
    <linearGradient id="gradient">
      <stop offset="5%" stop-color="#D8AE5E" />
      <stop offset="95%" stop-color="#E7D49E" />
    </linearGradient>
 </defs>
 <g>
  <path fill="url(#gradient)" d="m565.3 74.918c5.4609 1.1562 9.6328 5.9766 9.6328 11.77v51.887c0 5.793-4.1719 10.613-9.6328 11.77v12.871c5.4609 1.1445 9.6328 5.9688 9.6328 11.77v30.809c0 5.793-4.1641 10.703-9.6328 11.883v295.63c0 25.672-21.016 46.699-46.699 46.699h-214.55c-25.68 0-46.699-21.027-46.699-46.699v-65.871c0-2.8867 2.3633-5.25 5.25-5.25h22.305c2.8867 0 5.25 2.3633 5.25 5.25v65.871c0 7.5703 6.3359 13.902 13.902 13.902h214.55c7.6211 0 13.902-6.2812 13.902-13.902v-466.6c0-7.6289-6.2812-13.902-13.902-13.902h-36.602l-0.16797 0.24609c-7.2031 11.164-18.699 17.543-32 17.543h-76.914c-13.359 0-24.887-6.3359-32.141-17.586l-0.12109-0.20312h-36.609c-7.5703 0-13.902 6.3359-13.902 13.902v98.613c0 2.8867-2.3633 5.25-5.25 5.25h-22.305c-2.8867 0-5.25-2.3633-5.25-5.25v-98.613c0-25.68 21.016-46.699 46.699-46.699h214.55c25.68 0 46.699 21.016 46.699 46.699v28.219zm-396.6 118.27h48.457v48.457h-48.457zm-37.781-35.891c-3.7539 4.207-5.8438 9.6406-5.8438 15.328v62.711c0 0.82422 0.67188 1.4961 1.4961 1.4961h17.562c0.8125 0 1.4961-0.67188 1.4961-1.4961v-55.027c0-5.6172 4.5781-10.195 10.195-10.195h55.027c0.82422 0 1.4961-0.68359 1.4961-1.4961v-17.562c0-0.82422-0.67188-1.4961-1.4961-1.4961h-62.711c-6.125 0-11.926 2.4492-16.25 6.7656zm37.781 195.87h48.457v48.449h-48.457zm91.523-144.18v32.664h-24.23v-48.457h59.422v15.793zm50.609 119.74h30.871v-14.395h24.219v24.23h-55.09v14.387h-24.23v-24.219h24.23zm-24.23 39.77h24.23v24.219h-24.23zm-106.71-47.766h24.23v24.23h-24.23zm161.8-56.445h24.219v24.219h-24.219zm-161.8-10.055h24.23v24.219h-24.23zm56.098 87.508h24.23v48.449h-24.23zm59.422-117.68h24.219v24.219h-24.219zm4.918 38.824h24.23v48.449h-24.23zm-16.574 0v24.23h-28.656v24.219h-48.457v-24.219h28.664v-24.23zm44.914 90.281h48.449v48.449h-48.449zm6.3086-203.61c-0.82422 0-1.5039 0.67188-1.5039 1.4961v17.562c0 0.8125 0.68359 1.4961 1.5039 1.4961h55.02c5.6172 0 10.195 4.5781 10.195 10.195v55.027c0 0.82422 0.68359 1.4961 1.5039 1.4961h17.551c0.82422 0 1.5039-0.67188 1.5039-1.4961v-62.711c0-6.1328-2.4336-11.969-6.7734-16.301-4.332-4.332-10.168-6.7656-16.293-6.7656h-62.711zm78.043 289.84 0.96094-0.97266c4.3242-4.3242 6.7734-10.125 6.7734-16.238v-62.711c0-0.82422-0.68359-1.5039-1.5039-1.5039h-17.551c-0.82422 0-1.5039 0.68359-1.5039 1.5039v55.02c0 5.6172-4.5781 10.195-10.195 10.195h-55.02c-0.82422 0-1.5039 0.68359-1.5039 1.5039v17.551c0 0.82422 0.68359 1.5039 1.5039 1.5039h62.711c5.6875 0 11.113-2.1016 15.328-5.8555zm-202.18 5.8555c0.82422 0 1.4961-0.68359 1.4961-1.5039v-17.551c0-0.82422-0.67188-1.5039-1.4961-1.5039h-55.027c-5.6172 0-10.195-4.5781-10.195-10.195v-55.02c0-0.82422-0.68359-1.5039-1.4961-1.5039h-17.562c-0.82422 0-1.4961 0.68359-1.4961 1.5039v62.711c0 6.1172 2.4414 11.918 6.7656 16.238l0.050781 0.050781c4.3242 4.3242 10.125 6.7734 16.25 6.7734zm117.83-252.06h48.449v48.457h-48.449z" fill-rule="evenodd"/>
 </g>
</svg>
