<svg width="200pt" height="206pt" version="1.1" viewBox="0 0 700 700" xmlns="http://www.w3.org/2000/svg" xmlns:xlink="http://www.w3.org/1999/xlink">
 <defs>
    <linearGradient id="gradient">
      <stop offset="5%" stop-color="#D8AE5E" />
      <stop offset="95%" stop-color="#E7D49E" />
    </linearGradient>
 </defs>
 <g>
  <path fill="url(#gradient)" d="m88.664 56c-10.309 0-18.664 8.3633-18.664 18.664v74.664c0 10.309 8.3633 18.664 18.664 18.664 10.297 0 18.664-8.3633 18.664-18.664v-56h56c10.309 0 18.664-8.3633 18.664-18.664 0-10.297-8.3633-18.664-18.664-18.664zm448 0c-10.309 0-18.664 8.3633-18.664 18.664 0 10.297 8.3633 18.664 18.664 18.664h56v56c0 10.309 8.3633 18.664 18.664 18.664 10.297 0 18.664-8.3633 18.664-18.664v-74.664c0-10.309-8.3633-18.664-18.664-18.664zm-392 74.664v298.66h37.336v-298.66zm74.672 0v177.34h37.336v-177.34zm74.664 0v60.664h37.336v-60.664zm74.664 0v298.66h37.336v-298.66zm74.672 0v177.34h37.336v-177.34zm74.664 0v298.66h37.336v-298.66zm-224 98v200.66h37.336v-200.66zm-74.664 116.67v84h37.336v-84zm224 0v84h37.336v-84zm-354.67 46.664c-10.309 0-18.664 8.3633-18.664 18.664v74.664c0 10.309 8.3633 18.664 18.664 18.664h74.664c10.309 0 18.664-8.3633 18.664-18.664 0-10.297-8.3633-18.664-18.664-18.664h-56v-56c0-10.309-8.3633-18.664-18.664-18.664zm522.67 0c-10.309 0-18.664 8.3633-18.664 18.664v56h-56c-10.309 0-18.664 8.3633-18.664 18.664 0 10.297 8.3633 18.664 18.664 18.664h74.664c10.309 0 18.664-8.3633 18.664-18.664v-74.664c0-10.309-8.3633-18.664-18.664-18.664z"/>
 </g>
</svg>
