<?xml version="1.0" encoding="UTF-8"?>
<svg width="40pt" height="40pt" version="1.1" viewBox="0 0 700 700" xmlns="http://www.w3.org/2000/svg" xmlns:xlink="http://www.w3.org/1999/xlink">
 <defs>
    <linearGradient id="gradient">
      <stop offset="5%" stop-color="#D8AE5E" />
      <stop offset="95%" stop-color="#E7D49E" />
    </linearGradient>
 </defs>
 <g>
  <path fill="url(#gradient)" d="m350 68.297c-139.12 0-252 92.625-252 206.9 0 53.156 24.672 101.5 64.883 138.16-7.3008 24.504-18.289 48.305-34.742 65.754-19.645 20.91 40.422 17.762 97.035-24.371 36.883 17.328 79.363 27.34 124.82 27.34 139.21 0 252-92.656 252-206.9 0-114.27-112.79-206.89-252-206.89zm15.926 325.45c-7 6.8672-15.398 10.281-25.246 10.281-9.8906 0-18.379-3.5039-25.637-10.414-7.1797-7-10.762-15.398-10.762-25.246 0-10.102 3.4609-18.68 10.461-25.637 6.957-6.957 15.625-10.461 25.938-10.461 9.8438 0 18.426 3.6289 25.68 10.898 6.6992 6.9102 10.023 15.309 10.023 25.199-0.007812 10.07-3.5 18.559-10.457 25.379zm51.016-156.92c-6.125 11.109-15.445 21.438-27.867 31.059-1.5352 1.3984-4.0195 3.1914-7.5703 5.2969-2.2305 1.4883-8.8359 5.4648-19.859 11.938-1.9258 1.1406-3.2812 2.1055-4.0664 2.8008-1.6562 1.5352-4.2891 4.0664-7.918 7.6172-2.3633 2.4531-4.3359 4.9062-5.9023 7.4375-1.5664 2.5312-2.7109 5.207-3.4141 8.0078-6.6992-4.8164-11.457-10.672-14.438-17.629-1.1406-2.6211-2.1055-5.5547-2.8008-8.6562-0.69531-3.1016-1.0547-6.082-1.0547-8.8828 0-10.102 5.2539-20.82 15.793-32.199l1.0977-1.0977 5.4219-6.125c1.1758-1.3984 3.0586-3.8984 5.5547-7.4375 2.543-3.5859 4.3789-6.4297 5.5547-8.3984 2.2305-4.1094 3.3281-8.2656 3.3281-12.465 0-6.125-2.0156-11.547-5.9922-16.23-3.9766-4.6367-9.543-7.707-16.711-9.1406-1.2656-0.22266-3.1914-0.34766-5.7773-0.34766-7.043 0-14.527 1.9258-22.445 5.8242-7.918 3.8516-15.926 9.7539-24.023 17.629l-4.7266 5.4219c2.0625-12.207 3.1484-24.586 3.1484-37.141 0-7.3477-0.34766-14.707-1.0977-21.965 7.5273-3.6719 14.57-6.5195 21.133-8.625 6.5625-2.1406 14.391-3.8516 23.406-5.2539 9.0156-1.3086 17.629-2.0156 25.859-2.0156 38.852 0 62.957 17.102 72.32 51.23 1.5352 5.4648 2.2734 10.809 2.2734 15.883 0.003906 11.188-3.0664 22.344-9.2266 33.465z"/>
 </g>
</svg>
