<svg width="700pt" height="700pt" version="1.1" viewBox="0 0 660 660" xmlns="http://www.w3.org/2000/svg" xmlns:xlink="http://www.w3.org/1999/xlink">
 <defs>
    <linearGradient id="gradient">
      <stop offset="5%" stop-color="#D8AE5E" />
      <stop offset="95%" stop-color="#E7D49E" />
    </linearGradient>
 </defs>
 <g>
  <path fill="url(#gradient)" d="m249.64 368.02c10.414-10.414 20.914-20.648 31.414-30.887-24.004-10.82-44.73-27.777-60.09-49.16-15.363-21.383-24.816-46.438-27.41-72.641l-95.113 41.301c-2.957 1.3086-4.9531 4.1367-5.1875 7.3594-0.23828 3.2227 1.3164 6.3164 4.0508 8.043z"/>
  <path fill="url(#gradient)" d="m590.62 48.039c-2.5312-2.5234-6.3438-3.25-9.625-1.8398l-128.71 56.09c12.238 13.832 21.793 29.828 28.172 47.16 23.363-20.91 46.812-41.738 70.789-61.949-24.414 27.387-49.613 53.988-74.812 80.586l-6.5625 6.9141c-0.91016-4.3438-2.0508-8.6367-3.4141-12.863-9.2656-29.617-28.73-54.992-54.934-71.617-26.199-16.629-57.449-23.438-88.191-19.211-30.746 4.2227-58.996 19.207-79.742 42.285s-32.645 52.762-33.582 83.781 9.1484 61.367 28.465 85.656c19.316 24.289 46.613 40.949 77.047 47.02-18.199 17.5-36.488 35-54.949 52.5l1.9258 72.449c0.11328 3.6875 2.5273 6.9062 6.0391 8.0508 0.86328 0.35938 1.7773 0.59766 2.7109 0.69922 2.707-0.007812 5.2617-1.2656 6.9141-3.4141l22.488-29.312 72.449 105c1.6289 2.3555 4.3086 3.7578 7.1719 3.7656h0.96484c3.1367-0.34766 5.8438-2.3516 7.0859-5.25l204.23-476.79c1.4258-3.3242 0.66016-7.1836-1.9258-9.7109zm-210 135.71h-17.5v-8.75c0-2.3203-0.92188-4.5469-2.5625-6.1875s-3.8672-2.5625-6.1875-2.5625h-26.25c-4.832 0-8.75 3.918-8.75 8.75v8.75c0 2.3203 0.92188 4.5469 2.5625 6.1875s3.8672 2.5625 6.1875 2.5625h26.25c6.9609 0 13.641 2.7656 18.562 7.6875s7.6875 11.602 7.6875 18.562v8.75c0 6.9609-2.7656 13.641-7.6875 18.562s-11.602 7.6875-18.562 7.6875h-6.5625v12.426h-17.5v-12.426h-2.1875c-6.9609 0-13.641-2.7656-18.562-7.6875s-7.6875-11.602-7.6875-18.562v-8.75h17.5v8.75c0 2.3203 0.92188 4.5469 2.5625 6.1875s3.8672 2.5625 6.1875 2.5625h26.25c2.3203 0 4.5469-0.92188 6.1875-2.5625s2.5625-3.8672 2.5625-6.1875v-8.75c0-2.3203-0.92188-4.5469-2.5625-6.1875s-3.8672-2.5625-6.1875-2.5625h-26.25c-6.9609 0-13.641-2.7656-18.562-7.6875s-7.6875-11.602-7.6875-18.562v-8.75c0-6.9609 2.7656-13.641 7.6875-18.562s11.602-7.6875 18.562-7.6875h5.0742v-13.125h17.5v13.125h3.6758c6.9609 0 13.641 2.7656 18.562 7.6875s7.6875 11.602 7.6875 18.562zm45.238 36.312c1.4141-6.1719 2.1172-12.48 2.0977-18.812v-3.9375c-1.0117-22.191-10.5-43.145-26.508-58.547-16.008-15.398-37.316-24.066-59.531-24.215-22.211-0.14844-43.637 8.2305-59.852 23.414-16.215 15.184-25.984 36.008-27.293 58.184-1.3086 22.176 5.9414 44.008 20.258 60.992 14.312 16.984 34.602 27.832 56.676 30.297 3.082 0.35156 6.1758 0.52734 9.2773 0.52344 6.5078-0.007813 12.992-0.73828 19.336-2.1875-6.6484 6.6484-13.387 13.125-19.949 19.688-8.1992 0-16.367-1-24.324-2.9727-24.355-6.0703-45.699-20.727-60.109-41.273-14.414-20.547-20.926-45.605-18.344-70.57 2.5859-24.965 14.09-48.16 32.406-65.32 18.312-17.16 42.207-27.137 67.285-28.09 25.082-0.95703 49.664 7.1719 69.23 22.887 19.566 15.719 32.805 37.969 37.281 62.668 1.0586 5.7734 1.6133 11.629 1.6602 17.5-6.4727 6.4727-13.035 13.035-19.598 19.773z"/>
 </g>
</svg>
