<?xml version="1.0" encoding="UTF-8"?>
<svg width="200pt" height="200pt" version="1.1" viewBox="0 0 700 700" xmlns="http://www.w3.org/2000/svg" xmlns:xlink="http://www.w3.org/1999/xlink">
 <defs>
    <linearGradient id="gradient">
      <stop offset="5%" stop-color="#D8AE5E" />
      <stop offset="95%" stop-color="#E7D49E" />
    </linearGradient>
 </defs>
 <g>
  <path fill="url(#gradient)" d= "m577.5 113.75h-455c-6.9609 0-13.641 2.7656-18.562 7.6875s-7.6875 11.602-7.6875 18.562v280c0 6.9609 2.7656 13.641 7.6875 18.562s11.602 7.6875 18.562 7.6875h455c6.9609 0 13.641-2.7656 18.562-7.6875s7.6875-11.602 7.6875-18.562v-280c0-6.9609-2.7656-13.641-7.6875-18.562s-11.602-7.6875-18.562-7.6875zm-455 17.5h455c2.3203 0 4.5469 0.92188 6.1875 2.5625s2.5625 3.8672 2.5625 6.1875v26.25h-472.5v-26.25c0-4.832 3.918-8.75 8.75-8.75zm463.75 52.5v192.5h-472.5v-192.5zm-8.75 245h-455c-4.832 0-8.75-3.918-8.75-8.75v-26.25h472.5v26.25c0 2.3203-0.92188 4.5469-2.5625 6.1875s-3.8672 2.5625-6.1875 2.5625z" fill-rule="evenodd"/>
  </g>
</svg>